<svg xmlns="http://www.w3.org/2000/svg" xmlns:xlink="http://www.w3.org/1999/xlink" version="1.1" id="Layer_1" x="0px" y="0px" viewBox="174.3 0 842.6 842.6" enable-background="new 174.3 0 842.6 842.6" xml:space="preserve" class="svg replaced-svg">
<circle fill="#666666" cx="595.6" cy="421.3" r="421.3"></circle>
<g>
	<path fill="#FFFFFF" d="M717.1,362.3L574.3,667.8c-2.1,4.3-6.4,6.4-11.4,6.4c-0.7,0-2.1,0-3.6-0.7c-5.7-2.1-9.2-7.1-7.8-12.8   l51.9-213.1l-107.3,26.3c-0.7,0-2.1,0-2.8,0c-2.8,0-6.4-0.7-8.5-2.8c-2.8-2.8-4.3-6.4-3.6-9.9l53.3-217.4c1.4-5,6.4-8.5,11.4-8.5   h86.7c6.4,0,12.1,5,12.1,11.4c0,1.4-0.7,2.8-1.4,5l-45.5,122.2l104.4-25.6c0.7,0,2.1-0.7,2.8-0.7c3.6,0,6.4,1.4,9.2,4.3   C717.8,353.8,718.5,358.1,717.1,362.3z"></path>
</g>
</svg>